<svg width="37" height="36" viewBox="0 0 37 36" fill="none" xmlns="http://www.w3.org/2000/svg">
<g id="cart.svg">
<g id="Group">
<g id="Group_2">
<path id="Vector" d="M11.0701 23.256H29.3581C31.4461 23.256 33.1381 21.564 33.1381 19.476V11.736V11.7V11.664V11.628V11.592V11.556V11.52C33.1381 11.52 33.1381 11.484 33.1021 11.484C33.1021 11.484 33.1021 11.448 33.0661 11.448L33.0301 11.412C33.0301 11.412 33.0301 11.376 32.9941 11.376L32.9581 11.34C32.9581 11.34 32.9581 11.304 32.9221 11.304L32.8861 11.268L32.8501 11.232L32.8141 11.196L32.7781 11.16L32.7421 11.124L32.7061 11.088C32.7061 11.088 32.6701 11.088 32.6701 11.052C32.6701 11.052 32.6341 11.052 32.6341 11.016L32.5621 10.98L32.5261 10.944H32.4901H32.4541H32.4181C32.3821 10.944 32.3821 10.944 32.3461 10.944C32.3461 10.944 32.3461 10.944 32.3101 10.944L9.12606 7.74001V4.50001C9.12606 4.46401 9.12606 4.42801 9.12606 4.39201C9.12606 4.39201 9.12606 4.39201 9.12606 4.35601C9.12606 4.32001 9.12606 4.32001 9.12606 4.28401C9.12606 4.24801 9.12606 4.24801 9.12606 4.21201V4.17601L9.09006 4.10401V4.06801C9.09006 4.03201 9.09006 4.03201 9.05406 3.99601V3.96001C9.05406 3.96001 9.05406 3.92401 9.01806 3.92401C9.01806 3.92401 9.01806 3.88801 8.98206 3.88801C8.98206 3.88801 8.98206 3.85201 8.94606 3.85201L8.91006 3.81601L8.83806 3.74401L8.80206 3.70801L8.76606 3.67201C8.76606 3.67201 8.73006 3.67201 8.73006 3.63601L8.69406 3.60001C8.65806 3.60001 8.65806 3.56401 8.62206 3.56401C8.62206 3.56401 8.62206 3.56401 8.58606 3.56401C8.55006 3.56401 8.51406 3.52801 8.51406 3.52801L3.47406 1.40401C3.07806 1.29601 2.53806 1.51201 2.35806 1.98001C2.14206 2.44801 2.35806 2.98801 2.86206 3.16801L7.32606 5.04001V25.2C7.32606 27.108 8.76606 28.692 10.6021 28.944C10.2781 29.52 10.0621 30.168 10.0621 30.852C10.0621 32.904 11.7181 34.56 13.7701 34.56C15.8221 34.56 17.4781 32.904 17.4781 30.852C17.4781 30.168 17.2981 29.52 16.9741 28.98H25.2541C24.9301 29.52 24.7501 30.168 24.7501 30.852C24.7501 32.904 26.4061 34.56 28.4581 34.56C30.5101 34.56 32.1661 32.904 32.1661 30.852C32.1661 28.8 30.5101 27.144 28.4581 27.144H11.0701C9.99006 27.144 9.16206 26.28 9.16206 25.236V22.752C9.70206 23.076 10.3501 23.256 11.0701 23.256ZM15.6421 30.852C15.6421 31.896 14.8141 32.724 13.7701 32.724C12.7261 32.724 11.8981 31.896 11.8981 30.852C11.8981 29.808 12.7261 28.98 13.7701 28.98C14.8141 28.98 15.6421 29.844 15.6421 30.852ZM30.3301 30.852C30.3301 31.896 29.5021 32.724 28.4581 32.724C27.4141 32.724 26.5861 31.896 26.5861 30.852C26.5861 29.808 27.4141 28.98 28.4581 28.98C29.5021 28.98 30.3301 29.844 30.3301 30.852ZM29.3581 21.42H11.0701C9.99006 21.42 9.16206 20.556 9.16206 19.512V9.54001L31.2661 12.6V19.476C31.2661 20.556 30.4021 21.42 29.3581 21.42Z" fill="#737373"/>
</g>
</g>
</g>
</svg>
