<svg width="138" height="62" viewBox="0 0 138 62" fill="none" xmlns="http://www.w3.org/2000/svg">
<g id="logo_tmn.svg">
<g id="Group">
<g id="Group_2">
<path id="Vector" d="M73.3097 27.8192L73.3334 33.4925C73.3334 35.9423 73.9702 37.554 76.1995 37.554C78.4287 37.554 79.0974 35.8782 79.0974 33.4925V27.8192H77.3076L77.3138 24.4984H85.3709V27.8192H83.7786V34.5238C83.7786 38.3922 81.8677 41.8093 76.0402 41.8093C70.2763 41.8093 68.3018 38.4246 68.3018 34.5238L68.2899 27.8192H66.6777V24.5308H74.9577L74.9607 27.8192H73.3097Z" fill="#111111"/>
<path id="Vector_2" d="M60.6034 12.0883L60.5014 9.21911C60.1511 8.96111 59.2979 8.63877 58.3425 8.63877C56.2406 8.63877 54.6485 10.1861 54.6485 13.3452C54.6485 16.3433 56.0177 18.5353 58.9156 18.5353C61.6861 18.5353 63.8516 16.2144 63.8516 16.2144L65.7302 19.3413C65.7302 19.3413 63.5968 22.5004 58.4378 22.5004C51.878 22.5004 49.394 18.5032 49.394 13.3455C49.394 8.18774 52.9924 4.67392 57.5781 4.67392C58.9476 4.67392 60.1258 5.22188 60.9856 5.76985L61.158 4.96409H64.4566V12.0883H60.6034Z" fill="#111111"/>
<path id="Vector_3" d="M67.1953 21.9524L67.2077 18.6642H68.6566L73.3414 5.18971L79.9014 5.1895L84.506 18.6642H86.0157V21.9524L78.1501 21.9201L78.1737 18.6642H79.2166L78.8826 17.6972L73.5962 17.6974L73.2308 18.6642H74.6471L74.7104 21.9524H67.4182H67.1953ZM76.2073 9.18694L74.5513 14.5705H77.8633L76.303 9.18694H76.2073Z" fill="#111111"/>
<path id="Vector_4" d="M97.1615 10.5087L97.1867 8.76788C96.8364 8.4777 96.0788 8.21991 95.4418 8.21991C94.4865 8.21991 93.8814 8.67115 93.8814 9.60601C93.8814 11.7014 101.747 11.669 101.747 16.8591C101.747 20.5661 99.1995 22.5004 94.9324 22.5004C91.2383 22.5004 88.7927 21.1852 88.7927 21.1852L88.8818 16.1174L92.4802 16.1104L92.6779 18.6642C93.2193 18.8253 93.9451 18.8899 94.4228 18.8899C96.3336 18.8899 96.7793 18.3095 96.7793 17.5038C96.7793 15.5695 88.9455 15.7951 88.9455 10.1216C88.9455 6.99467 91.3655 4.67371 94.6456 4.67371C95.6964 4.67371 96.7473 5.15733 97.5755 5.67291L97.7161 4.96367L101.015 4.96409V10.5085L97.1615 10.5087Z" fill="#111111"/>
<path id="Vector_5" d="M114.836 10.2831L114.74 8.96132H111.396V11.7014L117.51 11.6692V15.3119L111.396 15.3117V18.1806H115.307L115.409 16.8522L119.039 16.8591L118.969 21.92H104.524L104.518 18.2518L106.333 18.2775V8.6066L104.518 8.57187L104.524 5.1895H114.421L118.721 5.18289V10.2507H114.836V10.2831Z" fill="#111111"/>
<path id="Vector_6" d="M60.8265 30.4949L60.5717 28.4641C60.1258 28.1739 59.3933 27.8192 58.3425 27.8192C55.5401 27.8192 54.6485 29.4311 54.6485 32.558C54.6485 35.8782 56.3362 37.7157 58.5971 37.7157C60.7943 37.7157 61.2085 36.6842 61.3039 36.2651V35.5559L58.7882 35.5561V32.3324H65.5713V41.1007L62.7689 41.1005L62.3549 40.0045C61.3676 40.9394 59.8392 41.6486 57.5144 41.6486C52.1008 41.6486 49.4258 37.877 49.4258 32.4935C49.4258 27.2069 53.0561 23.8219 57.8329 23.8219C58.9156 23.8219 60.1258 24.3701 61.1448 24.9181L61.6224 24.0799H64.4886V30.4305H60.8265V30.4949Z" fill="#111111"/>
<path id="Vector_7" d="M85.8633 41.1328L85.8564 37.6836L87.6716 37.7023V27.8586L86.0729 27.8447L86.0795 24.4023H94.1364C98.5947 24.4023 101.174 26.2398 101.174 29.6891C101.174 31.9134 99.8685 33.6861 98.1807 34.7823L99.9002 37.8378L102.416 37.8444L102.41 41.165H96.6201L95.6648 40.3588L93.4674 36.0071L92.4167 36.0073L92.4284 37.8444H93.7544L93.7815 41.1328H85.8633ZM92.3847 27.9481V32.3324H94.0727C95.028 32.3324 95.9196 31.3976 95.9196 29.9789C95.9196 28.496 95.2189 27.9481 93.2767 27.9481H92.3847Z" fill="#111111"/>
<path id="Vector_8" d="M108.984 27.6907L109.008 33.364C109.008 35.8136 109.645 37.4256 111.874 37.4256C114.103 37.4256 114.772 35.7495 114.772 33.364V27.6907H112.982L112.988 24.3699H121.045V27.6907H119.453V34.3954C119.453 38.2635 117.542 41.6808 111.715 41.6808C105.951 41.6808 103.976 38.2961 103.976 34.3954L103.964 27.6907H102.352V24.4023H110.632L110.635 27.6907H108.984Z" fill="#111111"/>
<path id="Vector_9" d="M33.3442 35.5524V32.9735C32.7709 33.2315 32.1658 33.4893 31.529 33.6827C31.4016 33.7151 31.2742 33.7473 31.1468 33.7794C31.0196 33.8118 30.892 33.844 30.7648 33.8762C30.6374 33.9086 30.51 33.9407 30.3826 33.9729C30.2552 34.0053 30.1278 34.0374 30.0004 34.0374C29.8732 34.0698 29.7456 34.1018 29.6184 34.1018C29.491 34.1342 29.3636 34.1342 29.2681 34.1663C29.2362 34.1663 29.2362 34.1663 29.2044 34.1663C29.1088 34.1663 29.0133 34.1987 28.9179 34.1987C28.8222 34.1987 28.7268 34.2309 28.6313 34.2309H28.5994C28.5357 34.2309 28.5037 34.2309 28.4402 34.2309C28.3765 34.2309 28.3128 34.2309 28.2808 34.2309C28.2171 34.2309 28.1534 34.2309 28.1217 34.2309C28.0897 34.2309 28.058 34.2309 27.9943 34.2309C27.8669 34.2309 27.7714 34.2309 27.644 34.2309C27.5166 34.2309 27.3575 34.2309 27.2301 34.2309C24.8098 34.2309 22.517 33.6506 20.5107 32.5868C20.4153 32.5546 20.3516 32.4901 20.2559 32.4579C20.0968 32.3612 19.9057 32.2645 19.7465 32.1679C19.1732 31.8132 18.6001 31.4265 18.0587 31.0075C17.6128 30.6527 17.1671 30.266 16.753 29.8468C15.7339 28.8152 14.8743 27.6547 14.1736 26.3653C13.0272 24.3343 12.3901 21.9166 12.3901 19.3701C12.3901 11.0854 19.0141 4.38034 27.1981 4.38034C27.3892 4.38034 27.5484 4.38034 27.7395 4.38034C27.8351 4.38034 27.9306 4.38034 28.026 4.38034C28.1534 4.38034 28.3126 4.41251 28.4402 4.41251C28.5676 4.41251 28.695 4.44489 28.8542 4.44489C28.9498 4.44489 29.0453 4.47706 29.1407 4.47706C29.2364 4.47706 29.3636 4.50945 29.4592 4.50945C29.4592 4.50945 29.4912 4.50945 29.5229 4.50945C29.5866 4.50945 29.6821 4.54162 29.7458 4.54162C29.8095 4.54162 29.9049 4.574 29.9686 4.574C30.0006 4.574 30.0643 4.60639 30.096 4.60639C30.1597 4.60639 30.2234 4.63856 30.2871 4.63856C30.3828 4.67094 30.4463 4.67094 30.5419 4.70311C30.5739 4.70311 30.6056 4.70311 30.6376 4.73528C30.7011 4.76766 30.7967 4.76766 30.8605 4.79983C30.9242 4.79983 30.9879 4.83201 31.0196 4.83201C31.0833 4.86439 31.147 4.86439 31.2107 4.89656C31.2427 4.89656 31.2744 4.92873 31.3381 4.92873C31.4338 4.96111 31.4973 4.99328 31.5929 4.99328C31.7203 5.02545 31.8477 5.05762 31.9432 5.12218C32.2934 5.25107 32.6119 5.38018 32.9622 5.50908C33.0896 5.57342 33.217 5.6058 33.3444 5.67014V4.86418L41.7194 4.86375V16.4688H33.3442C32.2297 14.0511 29.7777 12.3748 26.9435 12.4715C23.0264 12.665 20.0329 16.211 20.4788 20.176C20.4788 20.2082 20.4788 20.2082 20.4788 20.2404C20.8929 23.6251 23.7271 26.2364 27.1981 26.2364C29.9369 26.2364 32.2932 24.5923 33.3442 22.2392L41.7194 22.239V35.5846C41.7194 36.2295 41.6239 36.9064 41.4646 37.5189C39.745 43.8695 34.0129 48.5436 27.1981 48.5436C20.0011 48.5436 13.9825 43.3213 12.6769 36.423H21.0521C22.1028 38.7761 24.4594 40.4202 27.1981 40.4202C29.491 40.4202 31.529 39.2919 32.7391 37.5189C33.1213 36.9385 33.3442 36.2617 33.3442 35.5524Z" fill="#111111"/>
<path id="Vector_10" d="M52.9463 52.6435C52.1442 52.6435 51.4725 52.3784 50.9311 51.8482C50.39 51.3179 50.1194 50.6353 50.1194 49.8001C50.1194 48.965 50.39 48.2821 50.9311 47.7521C51.4725 47.2218 52.1442 46.9568 52.9463 46.9568C53.8254 46.9568 54.5206 47.3194 55.0314 48.0446L54.4545 48.3661C54.2952 48.1298 54.081 47.9374 53.8117 47.7891C53.5424 47.6406 53.254 47.5665 52.9463 47.5665C52.3419 47.5665 51.8378 47.7768 51.4339 48.1971C51.0302 48.6175 50.8282 49.1518 50.8282 49.8001C50.8282 50.4484 51.0302 50.9827 51.4339 51.4031C51.8378 51.8234 52.3419 52.0337 52.9463 52.0337C53.254 52.0337 53.5424 51.9609 53.8117 51.8151C54.081 51.6696 54.2952 51.476 54.4545 51.2341L55.0398 51.5556C54.5067 52.2809 53.809 52.6435 52.9463 52.6435ZM59.0577 52.0418C58.6978 52.443 58.221 52.6435 57.6277 52.6435C57.0343 52.6435 56.5575 52.443 56.1977 52.0418C55.8378 51.6409 55.6578 51.1436 55.6578 50.55C55.6578 49.9567 55.8378 49.4607 56.1977 49.0625C56.5575 48.6641 57.0343 48.4649 57.6277 48.4649C58.221 48.4649 58.6978 48.6641 59.0577 49.0625C59.4175 49.4607 59.5975 49.9567 59.5975 50.55C59.5975 51.1436 59.4175 51.6409 59.0577 52.0418ZM56.6591 51.6421C56.8982 51.9417 57.221 52.0912 57.6277 52.0912C58.0342 52.0912 58.3557 51.9417 58.5919 51.6421C58.8282 51.3426 58.9464 50.9787 58.9464 50.55C58.9464 50.1216 58.8282 49.7588 58.5919 49.4622C58.3557 49.1654 58.0342 49.0172 57.6277 49.0172C57.221 49.0172 56.8982 49.1669 56.6591 49.4663C56.4203 49.7658 56.3008 50.1269 56.3008 50.55C56.3008 50.9787 56.4203 51.3426 56.6591 51.6421ZM62.0124 52.6435C61.2487 52.6435 60.6498 52.4266 60.2156 51.9924L60.5207 51.5968C60.8941 51.954 61.3914 52.1326 62.0124 52.1326C62.3695 52.1326 62.6537 52.0693 62.8653 51.943C63.0768 51.8166 63.1827 51.649 63.1827 51.4402C63.1827 51.0006 62.7651 50.7808 61.93 50.7808H61.0399V50.2782H61.93C62.276 50.2782 62.5591 50.2217 62.7788 50.1092C62.9986 49.9965 63.1086 49.8304 63.1086 49.6105C63.1086 49.4237 62.9986 49.2713 62.7788 49.1531C62.5591 49.0351 62.2815 48.9758 61.9464 48.9758C61.3914 48.9758 60.9463 49.1463 60.6112 49.4869L60.2897 49.1077C60.702 48.6848 61.2459 48.4732 61.9217 48.4732C62.4656 48.4677 62.9066 48.5597 63.2445 48.7494C63.5824 48.9388 63.7513 49.2012 63.7513 49.5364C63.7513 49.811 63.6401 50.0336 63.4175 50.2038C63.1951 50.3743 62.9492 50.4759 62.6799 50.5089C62.9601 50.5309 63.2226 50.6242 63.4669 50.7891C63.7115 50.954 63.8338 51.1847 63.8338 51.4815C63.8338 51.8222 63.6704 52.1008 63.3434 52.3179C63.0165 52.535 62.5728 52.6435 62.0124 52.6435ZM64.3694 53.5583V52.0337C64.5729 51.9952 64.732 51.8729 64.8475 51.6669C64.963 51.4608 65.0563 51.0803 65.1276 50.5253L65.3833 48.5638H68.1525V52.0007H68.614V53.5583H67.9959V52.5446H64.9877V53.5583H64.3694ZM65.9272 49.1077L65.7459 50.5995C65.6524 51.2974 65.4602 51.7644 65.169 52.0007H67.5343V49.1077H65.9272ZM72.5701 52.5446H71.9518V52.0912C71.6167 52.4594 71.1772 52.6435 70.6333 52.6435C70.2651 52.6435 69.9409 52.5254 69.6607 52.2892C69.3805 52.0529 69.2404 51.7314 69.2404 51.3249C69.2404 50.9073 69.379 50.5843 69.6564 50.3564C69.934 50.1284 70.2596 50.0144 70.6333 50.0144C71.1991 50.0144 71.6386 50.1957 71.9518 50.5584V49.8412C71.9518 49.5775 71.8585 49.3715 71.6717 49.2232C71.4848 49.0749 71.243 49.0005 70.9465 49.0005C70.4795 49.0005 70.0727 49.1846 69.7265 49.5528L69.4381 49.1243C69.8612 48.6848 70.3915 48.4649 71.0289 48.4649C71.4848 48.4649 71.8557 48.5749 72.1414 48.7945C72.4271 49.0144 72.5701 49.3523 72.5701 49.8084V52.5446ZM70.8557 52.1984C71.3502 52.1984 71.7156 52.0337 71.9518 51.7039V50.954C71.7156 50.6242 71.3502 50.4595 70.8557 50.4595C70.57 50.4595 70.3352 50.5405 70.1511 50.7026C69.9671 50.8647 69.875 51.0748 69.875 51.333C69.875 51.5859 69.9671 51.7932 70.1511 51.9553C70.3352 52.1175 70.57 52.1984 70.8557 52.1984ZM74.4245 52.5446H73.8062V48.5638H74.4245V50.2205H76.5013V48.5638H77.1196V52.5446H76.5013V50.7644H74.4245V52.5446ZM81.5248 52.0418C81.1649 52.443 80.6881 52.6435 80.0948 52.6435C79.5014 52.6435 79.0246 52.443 78.6648 52.0418C78.305 51.6409 78.1249 51.1436 78.1249 50.55C78.1249 49.9567 78.305 49.4607 78.6648 49.0625C79.0246 48.6641 79.5014 48.4649 80.0948 48.4649C80.6881 48.4649 81.1649 48.6641 81.5248 49.0625C81.8846 49.4607 82.0646 49.9567 82.0646 50.55C82.0646 51.1436 81.8846 51.6409 81.5248 52.0418ZM79.1263 51.6421C79.3653 51.9417 79.6881 52.0912 80.0948 52.0912C80.5013 52.0912 80.8228 51.9417 81.0591 51.6421C81.2953 51.3426 81.4136 50.9787 81.4136 50.55C81.4136 50.1216 81.2953 49.7588 81.0591 49.4622C80.8228 49.1654 80.5013 49.0172 80.0948 49.0172C79.6881 49.0172 79.3653 49.1669 79.1263 49.4663C78.8874 49.7658 78.7679 50.1269 78.7679 50.55C78.7679 50.9787 78.8874 51.3426 79.1263 51.6421ZM87.4301 52.5446H85.1965V48.5638H87.389C87.735 48.5638 88.0083 48.6573 88.209 48.8439C88.4095 49.0308 88.5098 49.2781 88.5098 49.5858C88.5098 49.811 88.448 50.0049 88.3242 50.1668C88.2007 50.3289 88.0481 50.4376 87.8668 50.4923C88.0703 50.5419 88.2418 50.66 88.382 50.8468C88.5222 51.0337 88.5923 51.2397 88.5923 51.4649C88.5923 51.7891 88.4892 52.0501 88.2831 52.2478C88.0771 52.4458 87.7927 52.5446 87.4301 52.5446ZM87.3065 52.0007C87.5042 52.0007 87.6608 51.9457 87.7763 51.8358C87.8915 51.7259 87.9493 51.5776 87.9493 51.3907C87.9493 51.2205 87.8915 51.0748 87.7763 50.954C87.6608 50.833 87.5042 50.7727 87.3065 50.7727H85.8147V52.0007H87.3065ZM87.2818 50.2288C87.4686 50.2288 87.6142 50.1778 87.7186 50.0762C87.8229 49.9746 87.8751 49.8412 87.8751 49.6765C87.8751 49.5006 87.8229 49.3619 87.7186 49.2602C87.6142 49.1586 87.4686 49.1077 87.2818 49.1077H85.8147V50.2288H87.2818ZM93.9575 52.5446H93.2734V47.6573H91.5345V47.0473H95.7049V47.6573H93.9575V52.5446ZM99.2241 52.6435C98.6746 52.6435 98.2227 52.4662 97.8682 52.1119C97.5139 51.7576 97.3147 51.3083 97.2706 50.7644H96.5043V52.5446H95.886V48.5638H96.5043V50.2205H97.2789C97.345 49.7094 97.5523 49.289 97.9012 48.9594C98.2502 48.6298 98.691 48.4649 99.2241 48.4649C99.8174 48.4649 100.295 48.6641 100.658 49.0625C101.021 49.4607 101.202 49.9567 101.202 50.55C101.202 51.1436 101.021 51.6409 100.658 52.0418C100.295 52.443 99.8174 52.6435 99.2241 52.6435ZM99.2241 52.0912C99.6361 52.0912 99.9604 51.9417 100.197 51.6421C100.433 51.3426 100.551 50.9787 100.551 50.55C100.551 50.1216 100.433 49.7588 100.197 49.4622C99.9604 49.1654 99.6361 49.0172 99.2241 49.0172C98.8229 49.0172 98.5029 49.1669 98.2639 49.4663C98.0248 49.7658 97.9053 50.1269 97.9053 50.55C97.9053 50.9787 98.0235 51.3426 98.2598 51.6421C98.4961 51.9417 98.8174 52.0912 99.2241 52.0912ZM106.271 52.5446H105.653V49.4209L104.359 52.5446H104.128L102.826 49.4209V52.5446H102.207V48.5638H103.023L104.243 51.5143L105.447 48.5638H106.271V52.5446ZM109.304 52.6435C108.71 52.6435 108.224 52.4498 107.845 52.0625C107.466 51.6752 107.276 51.1709 107.276 50.55C107.276 49.9676 107.463 49.4746 107.837 49.0706C108.21 48.6669 108.677 48.4649 109.238 48.4649C109.826 48.4649 110.291 48.6669 110.635 49.0706C110.978 49.4746 111.15 49.9842 111.15 50.5995V50.7561H107.927C107.955 51.1462 108.098 51.4732 108.356 51.7369C108.614 52.0007 108.949 52.1326 109.361 52.1326C109.856 52.1326 110.265 51.9649 110.589 51.6298L110.886 52.0337C110.479 52.4402 109.952 52.6435 109.304 52.6435ZM110.54 50.3029C110.534 49.9622 110.419 49.6559 110.194 49.3838C109.968 49.112 109.647 48.9758 109.23 48.9758C108.834 48.9758 108.522 49.1105 108.294 49.3798C108.066 49.6491 107.944 49.9567 107.927 50.3029H110.54ZM112.765 52.5446H112.147V48.5638H112.765V50.2205H114.842V48.5638H115.46V52.5446H114.842V50.7644H112.765V52.5446ZM117.29 52.5446H116.696V48.5638H117.315V51.6051L119.4 48.5638H120.01V52.5446H119.392V49.4456L117.29 52.5446Z" fill="#111111"/>
</g>
</g>
</g>
</svg>
