<svg width="20" height="20" viewBox="0 0 20 20" fill="none" xmlns="http://www.w3.org/2000/svg">
<g id="map.svg">
<g id="Group">
<path id="Vector" d="M10.342 2.59C7.321 2.59 4.87 5.041 4.87 8.062C4.87 8.841 5.022 9.601 5.345 10.304C6.713 13.287 9.33499 16.46 10.114 17.353C10.171 17.429 10.247 17.467 10.342 17.467C10.437 17.467 10.513 17.429 10.57 17.353C11.349 16.46 13.971 13.306 15.32 10.304C15.643 9.601 15.795 8.86 15.795 8.062C15.814 5.041 13.344 2.59 10.342 2.59ZM10.342 10.893C8.78399 10.893 7.511 9.62 7.511 8.062C7.511 6.504 8.78399 5.231 10.342 5.231C11.9 5.231 13.192 6.504 13.192 8.062C13.173 9.62 11.9 10.893 10.342 10.893Z" fill="#3DA1EE"/>
</g>
</g>
</svg>
