<svg width="22" height="21" viewBox="0 0 22 21" fill="none" xmlns="http://www.w3.org/2000/svg">
<g id="padlock.svg">
<path id="Vector" d="M16.004 8.085H14.723V5.166C14.723 3.087 13.001 1.407 10.88 1.407C8.75901 1.407 7.03701 3.087 7.03701 5.166V8.085H5.75601C4.58001 8.085 3.63501 9.051 3.63501 10.206V17.451C3.63501 18.627 4.60101 19.572 5.75601 19.572H15.983C17.159 19.572 18.104 18.606 18.104 17.451V10.206C18.125 9.051 17.159 8.085 16.004 8.085ZM8.46501 5.166C8.46501 3.885 9.55701 2.835 10.88 2.835C12.203 2.835 13.295 3.885 13.295 5.166V8.085H8.46501V5.166ZM16.697 17.451C16.697 17.85 16.382 18.165 15.983 18.165H5.75601C5.35701 18.165 5.04201 17.85 5.04201 17.451V10.206C5.04201 9.807 5.35701 9.492 5.75601 9.492H15.983C16.382 9.492 16.697 9.807 16.697 10.206V17.451Z" fill="#737373"/>
<path id="Vector_2" d="M10.88 11.571C10.145 11.571 9.55701 12.159 9.55701 12.894C9.55701 13.356 9.78801 13.755 10.166 14.007V15.54C10.166 15.939 10.481 16.254 10.88 16.254C11.279 16.254 11.594 15.939 11.594 15.54V13.986C11.951 13.755 12.203 13.335 12.203 12.873C12.203 12.159 11.615 11.571 10.88 11.571Z" fill="#737373"/>
</g>
</svg>
