<svg width="21" height="20" viewBox="0 0 21 20" fill="none" xmlns="http://www.w3.org/2000/svg">
<g id="phone.svg" clip-path="url(#clip0_1_2689)">
<g id="Group">
<path id="Vector" d="M19.87 15.01C19.81 14.85 19.49 14.63 18.87 14.31C18.71 14.21 18.47 14.09 18.17 13.91C17.87 13.75 17.59 13.59 17.35 13.45C17.11 13.31 16.87 13.17 16.65 13.05C16.61 13.03 16.51 12.95 16.33 12.83C16.15 12.71 15.99 12.61 15.87 12.55C15.75 12.49 15.63 12.45 15.49 12.45C15.31 12.45 15.09 12.57 14.83 12.83C14.57 13.07 14.33 13.35 14.11 13.63C13.89 13.93 13.67 14.19 13.41 14.43C13.17 14.67 12.97 14.81 12.81 14.81C12.73 14.81 12.63 14.79 12.51 14.75C12.39 14.71 12.31 14.67 12.25 14.63C12.19 14.59 12.09 14.53 11.93 14.45C11.79 14.35 11.69 14.31 11.69 14.29C10.49 13.63 9.47005 12.87 8.63005 12.03C7.77005 11.17 7.03005 10.15 6.37005 8.97001C6.37005 8.95001 6.31005 8.87001 6.21005 8.73001C6.11005 8.59001 6.05005 8.47001 6.03005 8.41001C5.99005 8.35001 5.97005 8.25001 5.91005 8.15001C5.87005 8.03001 5.85005 7.93001 5.85005 7.85001C5.85005 7.69001 5.97005 7.49001 6.23005 7.25001C6.47005 7.01001 6.75005 6.77001 7.03005 6.55001C7.33005 6.33001 7.59005 6.09001 7.83005 5.83001C8.07005 5.57001 8.21005 5.35001 8.21005 5.17001C8.21005 5.05001 8.17005 4.93001 8.11005 4.79001C8.05005 4.67001 7.95005 4.51001 7.83005 4.33001C7.71005 4.15001 7.63005 4.03001 7.61005 4.01001C7.49005 3.79001 7.35005 3.57001 7.21005 3.31001C7.07005 3.07001 6.91005 2.79001 6.75005 2.49001C6.59005 2.19001 6.45005 1.95001 6.35005 1.79001C6.05005 1.19001 5.81005 0.850009 5.65005 0.790009C5.63005 0.810009 5.53005 0.790009 5.41005 0.790009C5.17005 0.790009 4.87005 0.830009 4.49005 0.930009C4.11005 1.01001 3.81005 1.11001 3.59005 1.21001C3.15005 1.39001 2.69005 1.93001 2.21005 2.81001C1.77005 3.61001 1.55005 4.41001 1.55005 5.21001C1.55005 5.45001 1.57005 5.67001 1.59005 5.89001C1.63005 6.11001 1.67005 6.37001 1.75005 6.65001C1.83005 6.93001 1.89005 7.13001 1.93005 7.27001C1.99005 7.39001 2.09005 7.63001 2.21005 7.99001C2.35005 8.33001 2.41005 8.55001 2.45005 8.63001C2.75005 9.49001 3.11005 10.25 3.53005 10.91C4.21005 12.03 5.15005 13.17 6.33005 14.35C7.51005 15.53 8.67005 16.47 9.77005 17.15C10.43 17.57 11.19 17.93 12.05 18.23C12.13 18.25 12.35 18.33 12.69 18.47C13.03 18.61 13.27 18.69 13.41 18.73C13.55 18.77 13.75 18.85 14.03 18.93C14.31 19.01 14.55 19.07 14.79 19.09C15.01 19.13 15.23 19.13 15.47 19.13C16.27 19.13 17.07 18.91 17.89 18.47C18.77 17.99 19.29 17.53 19.47 17.09C19.57 16.87 19.65 16.57 19.75 16.19C19.83 15.81 19.89 15.51 19.89 15.27C19.91 15.17 19.89 15.07 19.87 15.01Z" fill="#3DA1EE"/>
</g>
</g>
<defs>
<clipPath id="clip0_1_2689">
<rect width="20" height="20" fill="white" transform="translate(0.75 -0.00999451)"/>
</clipPath>
</defs>
</svg>
